#!OML:ASF X:\für Bonn\!DataBase\2005_08_11_Bastian_Final\c3d\Bastian.ASF
:FULLY-SPECIFIED
:DEGREES
208
root -22.3584 17.5679 0.482397 130.223 -81.0204 -140.794
lowerback 2.91679 -1.8146 1.68103
upperback 6.25818 -2.7415 2.24136
thorax 4.87211 -1.44728 1.33333
lowerneck 4.15043 -8.66342 3.39888
upperneck 16.3187 -14.2061 9.4552
head 4.74829 -6.74853 1.89908
rclavicle -7.39852e-015 6.06293e-015
rhumerus -0.6511 42.5497 -55.3451
rradius 102.503
rwrist -2.3856
rhand -10.2573 6.7663
rfingers 7.12502
rthumb 15.7358 -22.614
lclavicle -7.39852e-015 6.06293e-015
lhumerus -27.4597 1.00232 88.4213
lradius 7.79093
lwrist -1.86609
lhand -9.27732 -8.64519
lfingers 7.12502
lthumb 16.6795 20.6582
rfemur -0.61203 3.64203 22.4413
rtibia 30.022
rfoot -10.1174 -7.55045
rtoes -14.6027
lfemur 5.15144 8.20025 -15.264
ltibia 22.687
lfoot -11.0695 -1.33224
ltoes -5.88867
209
root -22.3512 17.5661 0.498937 131.345 -80.7854 -141.919
lowerback 2.98673 -1.96302 1.72841
upperback 6.27145 -2.95148 2.38652
thorax 4.85608 -1.55739 1.45662
lowerneck 4.12916 -8.59718 3.58416
upperneck 16.3811 -14.1103 9.29546
head 4.74551 -6.69824 1.82443
rclavicle -2.64011e-014 3.37934e-015
rhumerus -3.4442 43.8519 -57.7999
rradius 101.789
rwrist -1.73141
rhand -10.2024 7.18738
rfingers 7.12502
rthumb 15.7887 -22.1887
lclavicle -2.64011e-014 3.37934e-015
lhumerus -27.4858 1.2117 88.512
lradius 7.69452
lwrist -2.30369
lhand -9.26434 -8.72249
lfingers 7.12502
lthumb 16.692 20.5798
rfemur -0.754875 3.61206 22.3855
rtibia 30.1966
rfoot -10.1608 -7.2576
rtoes -14.7025
lfemur 5.12289 8.32845 -15.2788
ltibia 22.7508
lfoot -11.1532 -1.2152
ltoes -5.34318
210
root -22.3433 17.5639 0.51523 132.357 -80.5203 -142.922
lowerback 3.06279 -2.10805 1.80313
upperback 6.27347 -3.15704 2.54622
thorax 4.82506 -1.66466 1.58067
lowerneck 4.1572 -8.53114 3.73797
upperneck 16.4112 -14.0034 9.12691
head 4.72556 -6.64749 1.75586
rclavicle -4.61677e-014 2.24627e-014
rhumerus -6.31494 44.9772 -60.3686
rradius 100.943
rwrist -1.20963
rhand -10.0662 7.59572
rfingers 7.12502
rthumb 15.9199 -21.77
lclavicle -4.61677e-014 2.24627e-014
lhumerus -27.4901 1.42402 88.6109
lradius 7.58022
lwrist -2.66304
lhand -9.23919 -8.7927
lfingers 7.12502
lthumb 16.7162 20.5076
rfemur -0.91329 3.60725 22.3656
rtibia 30.383
rfoot -10.1905 -6.98477
rtoes -14.8026
lfemur 5.08108 8.49723 -15.2574
ltibia 22.823
lfoot -11.2315 -1.13135
ltoes -5.13126
211
root -22.335 17.5617 0.531476 133.318 -80.2832 -143.895
lowerback 3.16257 -2.25798 1.86765
upperback 6.28743 -3.36885 2.69196
thorax 4.79383 -1.77564 1.69715
lowerneck 4.15151 -8.45293 3.83775
upperneck 16.4535 -13.8939 9.0147
head 4.72221 -6.59393 1.70983
rclavicle -1.25607e-014 -6.55989e-015
rhumerus -9.21152 45.8738 -63.0406
rradius 99.9496
rwrist -0.754576
rhand -9.90089 7.94961
rfingers 7.12502
rthumb 16.0791 -21.4033
lclavicle -1.25607e-014 -6.55989e-015
lhumerus -27.4803 1.61751 88.6794
lradius 7.4857
lwrist -3.00638
lhand -9.19932 -8.90296
lfingers 7.12502
lthumb 16.7546 20.3941
rfemur -1.05203 3.60292 22.3235
rtibia 30.5837
rfoot -10.244 -6.70956
rtoes -14.7978
lfemur 5.05338 8.63181 -15.2617
ltibia 22.893
lfoot -11.309 -1.03162
ltoes -4.70701
212
root -22.3267 17.5598 0.546816 134.207 -80.0225 -144.773
lowerback 3.24696 -2.39222 1.94525
upperback 6.28585 -3.55932 2.84765
thorax 4.75517 -1.87548 1.81705
lowerneck 4.1782 -8.38243 3.95612
upperneck 16.4926 -13.7862 8.86927
head 4.70949 -6.54311 1.65293
rclavicle 2.68856e-014 -7.95139e-015
rhumerus -12.1482 46.5649 -65.753
rradius 98.8356
rwrist -0.41208
rhand -9.76879 8.23364
rfingers 7.12502
rthumb 16.2063 -21.1089
lclavicle 2.68856e-014 -7.95139e-015
lhumerus -27.488 1.7571 88.7255
lradius 7.39806
lwrist -3.30202
lhand -9.12386 -9.01169
lfingers 7.12502
lthumb 16.8272 20.2792
rfemur -1.21671 3.62209 22.3108
rtibia 30.7925
rfoot -10.2548 -6.45037
rtoes -14.8123
lfemur 5.00578 8.79895 -15.2349
ltibia 22.9604
lfoot -11.3794 -0.956285
ltoes -4.1584
213
root -22.3186 17.5577 0.562481 135.017 -79.7852 -145.571
lowerback 3.32372 -2.53376 2.04109
upperback 6.29823 -3.7598 2.98111
thorax 4.73378 -1.979 1.90346
lowerneck 4.15888 -8.30329 4.08966
upperneck 16.5287 -13.6652 8.71352
head 4.70158 -6.4832 1.58854
rclavicle 4.89507e-014 -8.74653e-015
rhumerus -15.0142 47.0212 -68.4544
rradius 97.604
rwrist -0.0679076
rhand -9.71763 8.45961
rfingers 7.12502
rthumb 16.2555 -20.8789
lclavicle 4.89507e-014 -8.74653e-015
lhumerus -27.4351 1.88934 88.7619
lradius 7.29008
lwrist -3.53089
lhand -9.01669 -9.13875
lfingers 7.12502
lthumb 16.9304 20.1433
rfemur -1.3833 3.57412 22.2742
rtibia 31.0105
rfoot -10.2839 -6.16656
rtoes -14.8928
lfemur 4.96052 8.96947 -15.2184
ltibia 23.0211
lfoot -11.4453 -0.908322
ltoes -3.82435
